# xmcd
#
# Track frame offsets:
#	182
#	23185
#	47495
#	69245
#	122312
#	140567
#	165990
#	183085
#	207635
#	240465
#	259307
#
# Disc length: 3780 seconds
#
# Revision: 0
# Processed by: cddbd v1.4PL0 Copyright (c) Steve Scherf et al.
# Submitted via: dBpowerAMP V4.0
#
DISCID=8e0ec20b
DTITLE=George Ross Watt and the Business - Home of the Wolf
DYEAR=1900
DGENRE=Blues
TTITLE0='Til the sun goes down
TTITLE1=Home of the wolf
TTITLE2=When the gypsy casts her spell
TTITLE3=Take a walk in the wilderness
TTITLE4=Whiskey river
TTITLE5=The storm
TTITLE6=Bob's shop is up for sale
TTITLE7=Prayin' for rain
TTITLE8=Someone to love you
TTITLE9=Shooter girl
TTITLE10=Walkin' on frozen waters
EXTD=
EXTT0=
EXTT1=
EXTT2=
EXTT3=
EXTT4=
EXTT5=
EXTT6=
EXTT7=
EXTT8=
EXTT9=
EXTT10=
PLAYORDER=
